<mxfile host="65bd71144e">
    <diagram id="APMYvbPqNNKEP5ZTkswi" name="Page-1">
        <mxGraphModel dx="1913" dy="784" grid="1" gridSize="10" guides="1" tooltips="1" connect="1" arrows="1" fold="1" page="1" pageScale="1" pageWidth="850" pageHeight="1100" math="0" shadow="0">
            <root>
                <mxCell id="0"/>
                <mxCell id="1" parent="0"/>
                <mxCell id="2" value="&lt;font style=&quot;font-size: 26px&quot;&gt;&lt;b&gt;yaml&lt;/b&gt;&lt;/font&gt;&lt;font style=&quot;font-size: 17px&quot;&gt;:&lt;br&gt;&lt;br&gt;yaml-file= '---\n' dictionary&lt;br&gt;&lt;br&gt;dictionary= list-properties | list-json-properties&lt;br&gt;&lt;br&gt;list-properties= property '\n' list-properties | property | NONE&lt;br&gt;&lt;br&gt;list-json-properties= '{' json-properties '}'&lt;br&gt;&lt;br&gt;json-properties: property',' json-properties | property | NONE&lt;br&gt;&lt;br&gt;property= key':' [explicit-data] value | key&lt;br&gt;&lt;br&gt;key= string&lt;br&gt;&lt;br&gt;explicit-data= '!!'type&lt;br&gt;&lt;br&gt;type: 'str' | 'int' | 'bool'&lt;br&gt;&lt;br&gt;list-val: value',' list-val | value&lt;br&gt;&lt;br&gt;value:&amp;nbsp; val-str | number | bool | list | dictionary | null | NONE&amp;nbsp;&lt;br&gt;&lt;br&gt;&lt;/font&gt;" style="text;html=1;align=center;verticalAlign=middle;resizable=0;points=[];autosize=1;strokeColor=none;fillColor=none;" parent="1" vertex="1">
                    <mxGeometry x="5" y="60" width="470" height="370" as="geometry"/>
                </mxCell>
                <mxCell id="3" value="strings:&lt;br&gt;&lt;br&gt;val-str: str | new-lines-str | folded-str&lt;br&gt;&lt;br&gt;str: string | '&quot;'string'&quot;'&lt;br&gt;&lt;br&gt;new-lines-str: '|' \n str-lines&lt;br&gt;&lt;br&gt;folded-str: '&amp;gt;' str-lines&lt;br&gt;&lt;br&gt;str-lines: string \n str-lines | &quot;string&quot; str-lines \n" style="text;html=1;align=center;verticalAlign=middle;resizable=0;points=[];autosize=1;strokeColor=none;fillColor=none;fontSize=17;" parent="1" vertex="1">
                    <mxGeometry x="65" y="480" width="360" height="230" as="geometry"/>
                </mxCell>
                <mxCell id="13" value="numbers:&lt;br&gt;&lt;br&gt;number: int | float | exp&lt;br&gt;&lt;br&gt;int: [0-9]*&lt;br&gt;&lt;br&gt;float: int'.'int&lt;br&gt;&lt;br&gt;exp: float'e+'int" style="text;html=1;align=center;verticalAlign=middle;resizable=0;points=[];autosize=1;strokeColor=none;fillColor=none;fontSize=17;" parent="1" vertex="1">
                    <mxGeometry x="50" y="720" width="190" height="190" as="geometry"/>
                </mxCell>
                <mxCell id="14" value="bools&lt;br&gt;&lt;br&gt;bool: true | false&lt;br&gt;&lt;br&gt;true True TRUE&amp;nbsp;&lt;br&gt;&lt;br&gt;false False FALSE&lt;br&gt;&amp;nbsp;" style="text;html=1;align=center;verticalAlign=middle;resizable=0;points=[];autosize=1;strokeColor=none;fillColor=none;fontSize=17;" parent="1" vertex="1">
                    <mxGeometry x="260" y="720" width="160" height="170" as="geometry"/>
                </mxCell>
                <mxCell id="16" value="lists&lt;br&gt;&lt;br&gt;list: [ list-val ] | [ list-json-properties ] | list-block&lt;br&gt;&lt;br&gt;list-block = '-' value list-block" style="text;html=1;align=center;verticalAlign=middle;resizable=0;points=[];autosize=1;strokeColor=none;fillColor=none;fontSize=17;" parent="1" vertex="1">
                    <mxGeometry x="60" y="930" width="360" height="110" as="geometry"/>
                </mxCell>
                <mxCell id="17" value="JSON:&lt;br&gt;&lt;br&gt;object: { list-properties }&lt;br&gt;&lt;br&gt;list-properties: property','['\n'] list-properties | property&lt;br&gt;&lt;br&gt;property: &quot;string&quot;: value&lt;br&gt;&lt;br&gt;list-values: value','[\n] list-values | value&lt;br&gt;&lt;br&gt;value: str | number | boolean | null | object | array&lt;br&gt;&lt;br&gt;array: [ list-values ]" style="text;html=1;align=center;verticalAlign=middle;resizable=0;points=[];autosize=1;strokeColor=none;fillColor=none;fontSize=17;" parent="1" vertex="1">
                    <mxGeometry x="440" width="410" height="270" as="geometry"/>
                </mxCell>
                <mxCell id="29" style="edgeStyle=none;html=1;fontSize=17;exitX=0;exitY=0;exitDx=0;exitDy=0;entryX=0.5;entryY=0;entryDx=0;entryDy=0;" parent="1" source="18" target="18" edge="1">
                    <mxGeometry relative="1" as="geometry">
                        <mxPoint x="240.00000000000023" y="1300" as="targetPoint"/>
                        <Array as="points">
                            <mxPoint x="203" y="1450"/>
                        </Array>
                    </mxGeometry>
                </mxCell>
                <mxCell id="31" style="edgeStyle=none;html=1;fontSize=17;entryX=0;entryY=0.5;entryDx=0;entryDy=0;" parent="1" source="18" target="23" edge="1">
                    <mxGeometry relative="1" as="geometry">
                        <mxPoint x="370" y="1520" as="targetPoint"/>
                    </mxGeometry>
                </mxCell>
                <mxCell id="34" style="edgeStyle=orthogonalEdgeStyle;html=1;fontSize=17;curved=1;exitX=0.5;exitY=1;exitDx=0;exitDy=0;fillColor=#e3c800;strokeColor=#B09500;" parent="1" source="18" target="24" edge="1">
                    <mxGeometry relative="1" as="geometry">
                        <Array as="points">
                            <mxPoint x="235" y="1790"/>
                        </Array>
                    </mxGeometry>
                </mxCell>
                <mxCell id="18" value="yaml-file" style="ellipse;whiteSpace=wrap;html=1;fontSize=17;" parent="1" vertex="1">
                    <mxGeometry x="190" y="1470" width="90" height="100" as="geometry"/>
                </mxCell>
                <mxCell id="41" style="edgeStyle=none;rounded=1;html=1;fontSize=17;" parent="1" source="19" edge="1">
                    <mxGeometry relative="1" as="geometry">
                        <mxPoint x="790" y="1680" as="targetPoint"/>
                    </mxGeometry>
                </mxCell>
                <mxCell id="64" style="edgeStyle=none;rounded=1;html=1;fontSize=17;fillColor=#e3c800;strokeColor=#B09500;" parent="1" source="19" target="24" edge="1">
                    <mxGeometry relative="1" as="geometry"/>
                </mxCell>
                <mxCell id="19" value="property" style="ellipse;whiteSpace=wrap;html=1;fontSize=17;" parent="1" vertex="1">
                    <mxGeometry x="620" y="1630" width="90" height="100" as="geometry"/>
                </mxCell>
                <mxCell id="56" style="edgeStyle=none;rounded=1;html=1;entryX=0;entryY=0;entryDx=0;entryDy=0;fontSize=17;" parent="1" source="23" target="19" edge="1">
                    <mxGeometry relative="1" as="geometry"/>
                </mxCell>
                <mxCell id="23" value="dictionary" style="ellipse;whiteSpace=wrap;html=1;fontSize=17;" parent="1" vertex="1">
                    <mxGeometry x="420" y="1470" width="90" height="100" as="geometry"/>
                </mxCell>
                <mxCell id="24" value="Syntax Error" style="ellipse;whiteSpace=wrap;html=1;fontSize=17;" parent="1" vertex="1">
                    <mxGeometry x="425" y="1740" width="90" height="100" as="geometry"/>
                </mxCell>
                <mxCell id="27" style="edgeStyle=none;html=1;entryX=0;entryY=0.5;entryDx=0;entryDy=0;fontSize=17;" parent="1" source="26" target="18" edge="1">
                    <mxGeometry relative="1" as="geometry"/>
                </mxCell>
                <mxCell id="26" value="FILE" style="whiteSpace=wrap;html=1;fontSize=17;" parent="1" vertex="1">
                    <mxGeometry x="5" y="1490" width="120" height="60" as="geometry"/>
                </mxCell>
                <mxCell id="30" value="-" style="text;html=1;align=center;verticalAlign=middle;resizable=0;points=[];autosize=1;strokeColor=none;fillColor=none;fontSize=17;" parent="1" vertex="1">
                    <mxGeometry x="190" y="1420" width="20" height="30" as="geometry"/>
                </mxCell>
                <mxCell id="32" value="---" style="text;html=1;align=center;verticalAlign=middle;resizable=0;points=[];autosize=1;strokeColor=none;fillColor=none;fontSize=17;" parent="1" vertex="1">
                    <mxGeometry x="310" y="1490" width="30" height="30" as="geometry"/>
                </mxCell>
                <mxCell id="36" value="\n" style="text;html=1;align=center;verticalAlign=middle;resizable=0;points=[];autosize=1;strokeColor=none;fillColor=none;fontSize=17;" parent="1" vertex="1">
                    <mxGeometry x="560" y="1570" width="30" height="30" as="geometry"/>
                </mxCell>
                <mxCell id="45" style="edgeStyle=none;rounded=1;html=1;fontSize=17;" parent="1" source="42" target="44" edge="1">
                    <mxGeometry relative="1" as="geometry"/>
                </mxCell>
                <mxCell id="42" value="key" style="ellipse;whiteSpace=wrap;html=1;fontSize=17;" parent="1" vertex="1">
                    <mxGeometry x="790" y="1630" width="90" height="100" as="geometry"/>
                </mxCell>
                <mxCell id="43" value="char" style="text;html=1;align=center;verticalAlign=middle;resizable=0;points=[];autosize=1;strokeColor=none;fillColor=none;fontSize=17;" parent="1" vertex="1">
                    <mxGeometry x="725" y="1650" width="50" height="30" as="geometry"/>
                </mxCell>
                <mxCell id="67" style="edgeStyle=none;rounded=1;html=1;entryX=0.5;entryY=1;entryDx=0;entryDy=0;fontSize=17;" parent="1" source="44" target="57" edge="1">
                    <mxGeometry relative="1" as="geometry"/>
                </mxCell>
                <mxCell id="73" style="edgeStyle=none;rounded=1;html=1;fontSize=17;entryX=0.035;entryY=0.662;entryDx=0;entryDy=0;entryPerimeter=0;" parent="1" source="44" target="58" edge="1">
                    <mxGeometry relative="1" as="geometry">
                        <mxPoint x="1050" y="1600" as="targetPoint"/>
                    </mxGeometry>
                </mxCell>
                <mxCell id="86" style="edgeStyle=none;rounded=1;html=1;entryX=0;entryY=0.5;entryDx=0;entryDy=0;fontSize=17;" parent="1" source="44" target="61" edge="1">
                    <mxGeometry relative="1" as="geometry"/>
                </mxCell>
                <mxCell id="92" style="edgeStyle=none;rounded=1;html=1;fontSize=17;entryX=0.5;entryY=1;entryDx=0;entryDy=0;" parent="1" source="44" target="44" edge="1">
                    <mxGeometry relative="1" as="geometry">
                        <mxPoint x="980" y="1790" as="targetPoint"/>
                        <Array as="points">
                            <mxPoint x="980" y="1770"/>
                        </Array>
                    </mxGeometry>
                </mxCell>
                <mxCell id="44" value="value" style="ellipse;whiteSpace=wrap;html=1;fontSize=17;" parent="1" vertex="1">
                    <mxGeometry x="950" y="1630" width="90" height="100" as="geometry"/>
                </mxCell>
                <mxCell id="46" value=":" style="text;html=1;align=center;verticalAlign=middle;resizable=0;points=[];autosize=1;strokeColor=none;fillColor=none;fontSize=17;" parent="1" vertex="1">
                    <mxGeometry x="910" y="1645" width="20" height="30" as="geometry"/>
                </mxCell>
                <mxCell id="80" style="edgeStyle=none;rounded=1;html=1;fontSize=17;exitX=0;exitY=0.5;exitDx=0;exitDy=0;entryX=0.001;entryY=0.648;entryDx=0;entryDy=0;entryPerimeter=0;" parent="1" source="57" target="57" edge="1">
                    <mxGeometry relative="1" as="geometry">
                        <mxPoint x="830" y="1470" as="targetPoint"/>
                        <Array as="points">
                            <mxPoint x="850" y="1480"/>
                        </Array>
                    </mxGeometry>
                </mxCell>
                <mxCell id="82" style="edgeStyle=none;rounded=1;html=1;entryX=0;entryY=1;entryDx=0;entryDy=0;fontSize=17;" parent="1" source="57" target="81" edge="1">
                    <mxGeometry relative="1" as="geometry"/>
                </mxCell>
                <mxCell id="57" value="string" style="ellipse;whiteSpace=wrap;html=1;fontSize=17;" parent="1" vertex="1">
                    <mxGeometry x="865" y="1420" width="90" height="100" as="geometry"/>
                </mxCell>
                <mxCell id="111" style="edgeStyle=orthogonalEdgeStyle;curved=1;rounded=1;html=1;fontSize=17;entryX=0;entryY=0.5;entryDx=0;entryDy=0;" parent="1" source="58" target="58" edge="1">
                    <mxGeometry relative="1" as="geometry">
                        <mxPoint x="1200" y="1650" as="targetPoint"/>
                        <Array as="points">
                            <mxPoint x="1230" y="1620"/>
                            <mxPoint x="1230" y="1650"/>
                        </Array>
                    </mxGeometry>
                </mxCell>
                <mxCell id="113" style="rounded=1;html=1;entryX=1;entryY=0.5;entryDx=0;entryDy=0;fontSize=17;exitX=0.5;exitY=0;exitDx=0;exitDy=0;" parent="1" source="58" target="57" edge="1">
                    <mxGeometry relative="1" as="geometry"/>
                </mxCell>
                <mxCell id="118" style="edgeStyle=none;rounded=1;html=1;entryX=0;entryY=1;entryDx=0;entryDy=0;fontSize=17;" parent="1" source="58" target="116" edge="1">
                    <mxGeometry relative="1" as="geometry"/>
                </mxCell>
                <mxCell id="58" value="number" style="ellipse;whiteSpace=wrap;html=1;fontSize=17;" parent="1" vertex="1">
                    <mxGeometry x="1255" y="1600" width="90" height="100" as="geometry"/>
                </mxCell>
                <mxCell id="121" style="edgeStyle=none;rounded=1;html=1;entryX=0.5;entryY=0;entryDx=0;entryDy=0;fontSize=17;" parent="1" source="59" target="116" edge="1">
                    <mxGeometry relative="1" as="geometry"/>
                </mxCell>
                <mxCell id="59" value="bool" style="ellipse;whiteSpace=wrap;html=1;fontSize=17;" parent="1" vertex="1">
                    <mxGeometry x="1230" y="1120" width="90" height="100" as="geometry"/>
                </mxCell>
                <mxCell id="120" style="edgeStyle=none;rounded=1;html=1;entryX=0;entryY=0;entryDx=0;entryDy=0;fontSize=17;" parent="1" source="60" target="116" edge="1">
                    <mxGeometry relative="1" as="geometry"/>
                </mxCell>
                <mxCell id="60" value="null" style="ellipse;whiteSpace=wrap;html=1;fontSize=17;" parent="1" vertex="1">
                    <mxGeometry x="1240" y="1230" width="90" height="100" as="geometry"/>
                </mxCell>
                <mxCell id="117" style="edgeStyle=none;rounded=1;html=1;entryX=0.5;entryY=1;entryDx=0;entryDy=0;fontSize=17;" parent="1" source="61" target="116" edge="1">
                    <mxGeometry relative="1" as="geometry"/>
                </mxCell>
                <mxCell id="61" value="NONE" style="ellipse;whiteSpace=wrap;html=1;fontSize=17;" parent="1" vertex="1">
                    <mxGeometry x="1260" y="1740" width="90" height="100" as="geometry"/>
                </mxCell>
                <mxCell id="65" style="edgeStyle=none;rounded=1;html=1;fontSize=17;exitX=0;exitY=0;exitDx=0;exitDy=0;entryX=0.5;entryY=0;entryDx=0;entryDy=0;" parent="1" source="42" target="42" edge="1">
                    <mxGeometry relative="1" as="geometry">
                        <Array as="points">
                            <mxPoint x="803" y="1620"/>
                        </Array>
                    </mxGeometry>
                </mxCell>
                <mxCell id="66" value="char" style="text;html=1;align=center;verticalAlign=middle;resizable=0;points=[];autosize=1;strokeColor=none;fillColor=none;fontSize=17;" parent="1" vertex="1">
                    <mxGeometry x="770" y="1590" width="50" height="30" as="geometry"/>
                </mxCell>
                <mxCell id="69" value="char" style="text;html=1;align=center;verticalAlign=middle;resizable=0;points=[];autosize=1;strokeColor=none;fillColor=none;fontSize=17;" parent="1" vertex="1">
                    <mxGeometry x="940" y="1560" width="50" height="30" as="geometry"/>
                </mxCell>
                <mxCell id="71" value="char" style="text;html=1;align=center;verticalAlign=middle;resizable=0;points=[];autosize=1;strokeColor=none;fillColor=none;fontSize=17;" parent="1" vertex="1">
                    <mxGeometry x="800" y="1460" width="50" height="30" as="geometry"/>
                </mxCell>
                <mxCell id="74" value="dig" style="text;html=1;align=center;verticalAlign=middle;resizable=0;points=[];autosize=1;strokeColor=none;fillColor=none;fontSize=17;" parent="1" vertex="1">
                    <mxGeometry x="1040" y="1590" width="40" height="30" as="geometry"/>
                </mxCell>
                <mxCell id="84" style="edgeStyle=none;rounded=1;html=1;entryX=0;entryY=0.5;entryDx=0;entryDy=0;fontSize=17;" parent="1" source="81" target="59" edge="1">
                    <mxGeometry relative="1" as="geometry"/>
                </mxCell>
                <mxCell id="85" style="edgeStyle=none;rounded=1;html=1;entryX=0;entryY=0.5;entryDx=0;entryDy=0;fontSize=17;" parent="1" source="81" target="60" edge="1">
                    <mxGeometry relative="1" as="geometry"/>
                </mxCell>
                <mxCell id="90" style="edgeStyle=none;rounded=1;html=1;fontSize=17;" parent="1" source="81" target="91" edge="1">
                    <mxGeometry relative="1" as="geometry">
                        <mxPoint x="1220" y="1400" as="targetPoint"/>
                    </mxGeometry>
                </mxCell>
                <mxCell id="81" value="define&lt;br&gt;str" style="ellipse;whiteSpace=wrap;html=1;fontSize=17;" parent="1" vertex="1">
                    <mxGeometry x="960" y="1230" width="90" height="100" as="geometry"/>
                </mxCell>
                <mxCell id="83" value="\n" style="text;html=1;align=center;verticalAlign=middle;resizable=0;points=[];autosize=1;strokeColor=none;fillColor=none;fontSize=17;" parent="1" vertex="1">
                    <mxGeometry x="915" y="1350" width="30" height="30" as="geometry"/>
                </mxCell>
                <mxCell id="87" value="\n" style="text;html=1;align=center;verticalAlign=middle;resizable=0;points=[];autosize=1;strokeColor=none;fillColor=none;fontSize=17;" parent="1" vertex="1">
                    <mxGeometry x="1140" y="1720" width="30" height="30" as="geometry"/>
                </mxCell>
                <mxCell id="88" value="true | false" style="text;html=1;align=center;verticalAlign=middle;resizable=0;points=[];autosize=1;strokeColor=none;fillColor=none;fontSize=17;" parent="1" vertex="1">
                    <mxGeometry x="1070" y="1180" width="90" height="30" as="geometry"/>
                </mxCell>
                <mxCell id="89" value="null" style="text;html=1;align=center;verticalAlign=middle;resizable=0;points=[];autosize=1;strokeColor=none;fillColor=none;fontSize=17;" parent="1" vertex="1">
                    <mxGeometry x="1130" y="1275" width="40" height="30" as="geometry"/>
                </mxCell>
                <mxCell id="119" style="edgeStyle=none;rounded=1;html=1;entryX=0;entryY=0.5;entryDx=0;entryDy=0;fontSize=17;" parent="1" source="91" target="116" edge="1">
                    <mxGeometry relative="1" as="geometry"/>
                </mxCell>
                <mxCell id="91" value="string" style="ellipse;whiteSpace=wrap;html=1;fontSize=17;direction=south;" parent="1" vertex="1">
                    <mxGeometry x="1230" y="1360" width="100" height="90" as="geometry"/>
                </mxCell>
                <mxCell id="93" value="space" style="text;html=1;align=center;verticalAlign=middle;resizable=0;points=[];autosize=1;strokeColor=none;fillColor=none;fontSize=17;" parent="1" vertex="1">
                    <mxGeometry x="965" y="1765" width="60" height="30" as="geometry"/>
                </mxCell>
                <mxCell id="96" value="dig | ." style="text;html=1;align=center;verticalAlign=middle;resizable=0;points=[];autosize=1;strokeColor=none;fillColor=none;fontSize=17;" parent="1" vertex="1">
                    <mxGeometry x="1190" y="1600" width="60" height="30" as="geometry"/>
                </mxCell>
                <mxCell id="114" value="any" style="text;html=1;align=center;verticalAlign=middle;resizable=0;points=[];autosize=1;strokeColor=none;fillColor=none;fontSize=17;" parent="1" vertex="1">
                    <mxGeometry x="1120" y="1505" width="40" height="30" as="geometry"/>
                </mxCell>
                <mxCell id="115" value="any" style="text;html=1;align=center;verticalAlign=middle;resizable=0;points=[];autosize=1;strokeColor=none;fillColor=none;fontSize=17;" parent="1" vertex="1">
                    <mxGeometry x="1130" y="1315" width="40" height="30" as="geometry"/>
                </mxCell>
                <mxCell id="116" value="Done" style="ellipse;whiteSpace=wrap;html=1;fontSize=17;" parent="1" vertex="1">
                    <mxGeometry x="1430" y="1455" width="90" height="100" as="geometry"/>
                </mxCell>
            </root>
        </mxGraphModel>
    </diagram>
</mxfile>